<?xml version="1.0" encoding="utf-8"?>
<!-- Generator: Adobe Illustrator 15.1.0, SVG Export Plug-In . SVG Version: 6.00 Build 0)  -->
<!DOCTYPE svg PUBLIC "-//W3C//DTD SVG 1.1//EN" "http://www.w3.org/Graphics/SVG/1.1/DTD/svg11.dtd">
<svg version="1.1" id="mark" xmlns="http://www.w3.org/2000/svg" xmlns:xlink="http://www.w3.org/1999/xlink" x="0px" y="0px"
	 width="1019px" height="433.17px" viewBox="0 0 1019 433.17" enable-background="new 0 0 1019 433.17" xml:space="preserve">
<g>
	<polygon fill="#2EFDFF" points="487.237,316.585 447.075,192.979 552.222,116.585 657.368,192.979 617.206,316.585 	"/>
	<polygon fill="#25F0FF" points="523.28,312.252 462.079,222.129 528.878,136.074 631.364,173.012 627.905,281.896 	"/>
	<polygon fill="#1BE1FF" points="548.419,300.539 478.103,242.285 511.776,157.407 602.905,163.205 625.552,251.664 	"/>
	<polygon fill="#12D3FF" points="565.79,287.384 495.579,256.913 502.86,180.722 577.573,164.104 616.466,230.024 	"/>
	<polygon fill="#09C5FF" points="578.284,273.09 514.647,264.961 502.714,201.926 558.978,171.098 605.681,215.079 	"/>
	<polygon fill="#00B8FF" points="585.505,257.52 532.378,265.839 508.05,217.884 546.14,179.925 594.011,204.422 	"/>
	<polygon fill="#00AAFF" points="586.872,242.708 546.05,261.813 515.263,228.892 537.06,189.438 581.317,197.978 	"/>
	<polygon fill="#009FFF" points="583.876,231.013 555.476,255.928 523.003,236.617 531.335,199.766 568.956,196.302 	"/>
	<polygon fill="#0095FF" points="579.083,222.952 562.04,249.643 531.39,241.682 529.489,210.071 558.966,198.494 	"/>
	<polygon fill="#008AFF" points="573.989,217.38 566.505,242.847 539.972,243.597 531.058,218.594 552.083,202.391 	"/>
	<polygon fill="#0080FF" points="568.495,213.459 568.417,235.707 547.233,242.509 534.218,224.463 547.358,206.509 	"/>
	<polygon fill="#CCCCCC" points="149.237,316.585 109.075,192.979 214.222,116.585 319.368,192.979 279.206,316.585 	"/>
	<polygon fill="#B8B8B8" points="185.28,312.252 124.079,222.129 190.878,136.074 293.364,173.012 289.905,281.896 	"/>
	<polygon fill="#A3A3A3" points="210.419,300.539 140.103,242.285 173.776,157.407 264.905,163.205 287.552,251.664 	"/>
	<polygon fill="#8F8F8F" points="227.79,287.384 157.579,256.913 164.86,180.722 239.573,164.104 278.466,230.024 	"/>
	<polygon fill="#7A7A7A" points="240.284,273.09 176.647,264.961 164.714,201.926 220.978,171.098 267.681,215.079 	"/>
	<polygon fill="#666666" points="247.505,257.52 194.378,265.839 170.05,217.884 208.14,179.925 256.011,204.422 	"/>
	<polygon fill="#525252" points="248.872,242.708 208.05,261.813 177.263,228.892 199.06,189.438 243.317,197.978 	"/>
	<polygon fill="#3D3D3D" points="245.876,231.013 217.476,255.928 185.003,236.617 193.335,199.766 230.956,196.302 	"/>
	<polygon fill="#292929" points="241.083,222.952 224.04,249.643 193.39,241.682 191.489,210.071 220.966,198.494 	"/>
	<polygon fill="#141414" points="235.989,217.38 228.505,242.847 201.972,243.597 193.058,218.594 214.083,202.391 	"/>
	<polygon points="230.495,213.459 230.417,235.707 209.233,242.509 196.218,224.463 209.358,206.509 	"/>
	<polygon fill="#B4FF51" points="739.794,316.585 699.632,192.979 804.778,116.585 909.925,192.979 869.763,316.585 	"/>
	<polygon fill="#A4F051" points="775.837,312.252 714.636,222.129 781.435,136.074 883.921,173.012 880.462,281.896 	"/>
	<polygon fill="#94EC50" points="800.976,300.539 730.659,242.285 764.333,157.407 855.462,163.205 878.108,251.664 	"/>
	<polygon fill="#83E351" points="818.347,287.384 748.136,256.913 755.417,180.722 830.13,164.104 869.022,230.024 	"/>
	<polygon fill="#72D951" points="830.841,273.09 767.204,264.961 755.271,201.926 811.534,171.098 858.237,215.079 	"/>
	<polygon fill="#60D051" points="838.062,257.52 784.935,265.839 760.606,217.884 798.696,179.925 846.567,204.422 	"/>
	<polygon fill="#4EC751" points="839.429,242.708 798.606,261.813 767.819,228.892 789.616,189.438 833.874,197.978 	"/>
	<polygon fill="#3CBD52" points="836.433,231.013 808.032,255.928 775.56,236.617 783.892,199.766 821.513,196.302 	"/>
	<polygon fill="#29B453" points="831.64,222.952 814.597,249.643 783.946,241.682 782.046,210.071 811.522,198.494 	"/>
	<polygon fill="#15AA54" points="826.546,217.38 819.062,242.847 792.528,243.597 783.614,218.594 804.64,202.391 	"/>
	<polygon fill="#00A155" points="821.052,213.459 820.974,235.707 799.79,242.509 786.774,224.463 799.915,206.509 	"/>
</g>
</svg>
