<?xml version="1.0" encoding="utf-8"?>
<!-- Generator: Adobe Illustrator 15.1.0, SVG Export Plug-In . SVG Version: 6.00 Build 0)  -->
<!DOCTYPE svg PUBLIC "-//W3C//DTD SVG 1.1//EN" "http://www.w3.org/Graphics/SVG/1.1/DTD/svg11.dtd">
<svg version="1.1" id="mark" xmlns="http://www.w3.org/2000/svg" xmlns:xlink="http://www.w3.org/1999/xlink" x="0px" y="0px"
	 width="984px" height="250px" viewBox="0 0 984 250" enable-background="new 0 0 984 250" xml:space="preserve">
<g>
	<polygon fill="#2EFDFF" points="464.789,247.227 415.7,96.146 544.217,2.773 672.734,96.146 623.646,247.227 	"/>
	<polygon fill="#25F0FF" points="508.843,241.931 434.039,131.776 515.685,26.595 640.95,71.742 636.723,204.827 	"/>
	<polygon fill="#1BE1FF" points="539.569,227.614 453.624,156.412 494.782,52.669 606.166,59.756 633.846,167.876 	"/>
	<polygon fill="#12D3FF" points="560.801,211.535 474.985,174.292 483.885,81.166 575.203,60.854 622.74,141.427 	"/>
	<polygon fill="#09C5FF" points="576.072,194.063 498.292,184.128 483.705,107.083 552.475,69.402 609.559,123.159 	"/>
	<polygon fill="#00B8FF" points="584.898,175.033 519.963,185.201 490.228,126.588 536.783,80.191 595.295,110.134 	"/>
	<polygon fill="#00AAFF" points="586.569,156.93 536.674,180.281 499.044,140.042 525.686,91.82 579.779,102.257 	"/>
	<polygon fill="#009FFF" points="582.907,142.635 548.194,173.087 508.504,149.484 518.688,104.442 564.671,100.209 	"/>
	<polygon fill="#0095FF" points="577.049,132.782 556.218,165.405 518.755,155.675 516.432,117.039 552.46,102.889 	"/>
	<polygon fill="#008AFF" points="570.823,125.972 561.675,157.099 529.244,158.016 518.35,127.455 544.048,107.65 	"/>
	<polygon fill="#0080FF" points="564.107,121.18 564.012,148.372 538.12,156.686 522.212,134.629 538.273,112.685 	"/>
	<polygon fill="#CCCCCC" points="51.664,247.227 2.575,96.146 131.092,2.773 259.608,96.146 210.52,247.227 	"/>
	<polygon fill="#B8B8B8" points="95.718,241.931 20.914,131.776 102.56,26.595 227.825,71.742 223.598,204.827 	"/>
	<polygon fill="#A3A3A3" points="126.444,227.614 40.499,156.412 81.657,52.669 193.041,59.756 220.721,167.876 	"/>
	<polygon fill="#8F8F8F" points="147.676,211.535 61.859,174.292 70.76,81.166 162.078,60.854 209.615,141.427 	"/>
	<polygon fill="#7A7A7A" points="162.947,194.063 85.166,184.128 70.58,107.083 139.35,69.402 196.433,123.159 	"/>
	<polygon fill="#666666" points="171.772,175.033 106.838,185.201 77.103,126.588 123.658,80.191 182.169,110.134 	"/>
	<polygon fill="#525252" points="173.444,156.93 123.549,180.281 85.918,140.042 112.56,91.82 166.654,102.257 	"/>
	<polygon fill="#3D3D3D" points="169.782,142.635 135.069,173.087 95.379,149.484 105.562,104.442 151.546,100.209 	"/>
	<polygon fill="#292929" points="163.924,132.782 143.093,165.405 105.63,155.675 103.307,117.039 139.335,102.889 	"/>
	<polygon fill="#141414" points="157.697,125.972 148.55,157.099 116.119,158.016 105.224,127.455 130.923,107.65 	"/>
	<polygon points="150.982,121.18 150.887,148.372 124.995,156.686 109.086,134.629 125.147,112.685 	"/>
	<polygon fill="#B4FF51" points="773.48,247.227 724.392,96.146 852.908,2.773 981.425,96.146 932.336,247.227 	"/>
	<polygon fill="#A4F051" points="817.534,241.931 742.73,131.776 824.376,26.595 949.642,71.742 945.413,204.827 	"/>
	<polygon fill="#94EC50" points="848.26,227.614 762.314,156.412 803.474,52.669 914.856,59.756 942.537,167.876 	"/>
	<polygon fill="#83E351" points="869.492,211.535 783.676,174.292 792.575,81.166 883.895,60.854 931.432,141.427 	"/>
	<polygon fill="#72D951" points="884.764,194.063 806.982,184.128 792.396,107.083 861.166,69.402 918.249,123.159 	"/>
	<polygon fill="#60D051" points="893.589,175.033 828.654,185.201 798.918,126.588 845.475,80.191 903.985,110.134 	"/>
	<polygon fill="#4EC751" points="895.26,156.93 845.364,180.281 807.734,140.042 834.376,91.82 888.471,102.257 	"/>
	<polygon fill="#3CBD52" points="891.598,142.635 856.885,173.087 817.195,149.484 827.379,104.442 873.362,100.209 	"/>
	<polygon fill="#29B453" points="885.74,132.782 864.908,165.405 827.445,155.675 825.123,117.039 861.151,102.889 	"/>
	<polygon fill="#15AA54" points="879.514,125.972 870.366,157.099 837.936,158.016 827.04,127.455 852.738,107.65 	"/>
	<polygon fill="#00A155" points="872.799,121.18 872.703,148.372 846.811,156.686 830.902,134.629 846.964,112.685 	"/>
</g>
</svg>
