<?xml version="1.0" encoding="utf-8"?>
<!-- Generator: Adobe Illustrator 15.1.0, SVG Export Plug-In . SVG Version: 6.00 Build 0)  -->
<!DOCTYPE svg PUBLIC "-//W3C//DTD SVG 1.1//EN" "http://www.w3.org/Graphics/SVG/1.1/DTD/svg11.dtd">
<svg version="1.1" xmlns="http://www.w3.org/2000/svg" xmlns:xlink="http://www.w3.org/1999/xlink" x="0px" y="0px"
	 width="285.604px" height="176.746px" viewBox="0 0 285.604 176.746" enable-background="new 0 0 285.604 176.746"
	 xml:space="preserve">
<g id="mark">
	<rect x="190.344" y="0.371" fill="#333333" width="33.602" height="176.062"/>
	<rect x="237.903" y="0.371" fill="#333333" width="33.602" height="176.062"/>
	<path fill="#333333" d="M88.399,41.114l51.458,42.42l-19.956,61.418H56.781L36.875,83.553L88.399,41.114 M88.408,0.244
		L0.248,72.856l33.601,103.638h108.97l33.674-103.638L88.408,0.244L88.408,0.244z"/>
</g>
<g id="ratios">
	<g>
		<g>
			<g>
				<path fill="#DB6357" d="M207.059,125.158v4.184h-4.184v-4.184H207.059 M207.559,124.658h-5.184v5.184h5.184V124.658
					L207.559,124.658z"/>
			</g>
			<g>
				<path fill="#DB6357" d="M207.059,130.342v4.185h-4.184v-4.185H207.059 M207.559,129.842h-5.184v5.185h5.184V129.842
					L207.559,129.842z"/>
			</g>
			<g>
				<path fill="#DB6357" d="M217.426,125.197v9.327h-9.367v-9.327H217.426 M217.926,124.697h-10.367v10.327h10.367V124.697
					L217.926,124.697z"/>
			</g>
			<g>
				<path fill="#DB6357" d="M217.426,109.607v14.551h-14.551v-14.551H217.426 M217.926,109.107h-15.551v15.551h15.551V109.107
					L217.926,109.107z"/>
			</g>
			<g>
				<path fill="#DB6357" d="M201.875,109.607v24.919h-24.918v-24.919H201.875 M202.375,109.107h-25.918v25.919h25.918V109.107
					L202.375,109.107z"/>
			</g>
			<g>
				<path fill="#DB6357" d="M217.426,135.393v40.604h-40.469v-40.604H217.426 M217.926,134.893h-41.469v41.604h41.469V134.893
					L217.926,134.893z"/>
			</g>
			<g>
				<path fill="#DB6357" d="M284.854,109.644v66.316h-66.438v-66.316H284.854 M285.354,109.144h-67.438v67.316h67.438V109.144
					L285.354,109.144z"/>
			</g>
			<g>
				<path fill="#DB6357" d="M284.854,0.75v107.857H176.997V0.75H284.854 M285.354,0.25H176.497v108.857h108.857V0.25L285.354,0.25z"
					/>
			</g>
			<g>
				<path fill="#DB6357" d="M175.997,0.75v175.246H0.75V0.75H175.997 M176.497,0.25H0.25v176.246h176.247V0.25L176.497,0.25z"/>
			</g>
		</g>
		<g>
			<path fill="none" stroke="#DB6357" stroke-width="0.5" stroke-miterlimit="10" d="M207.559,135.026
				c-2.863,0-5.184-2.321-5.184-5.185"/>
			<path fill="none" stroke="#DB6357" stroke-width="0.5" stroke-miterlimit="10" d="M217.926,124.658
				c0,5.727-4.643,10.368-10.367,10.368"/>
			<path fill="none" stroke="#DB6357" stroke-width="0.5" stroke-miterlimit="10" d="M202.375,109.107
				c8.588,0,15.551,6.962,15.551,15.551"/>
			<path fill="none" stroke="#DB6357" stroke-width="0.5" stroke-miterlimit="10" d="M176.458,135.026
				c0-14.315,11.604-25.919,25.918-25.919"/>
			<path fill="none" stroke="#DB6357" stroke-width="0.5" stroke-miterlimit="10" d="M217.926,176.495
				c-22.902,0-41.469-18.567-41.469-41.47"/>
			<path fill="none" stroke="#DB6357" stroke-width="0.5" stroke-miterlimit="10" d="M285.315,109.107
				c0,37.217-30.172,67.389-67.389,67.389"/>
			<path fill="none" stroke="#DB6357" stroke-width="0.5" stroke-miterlimit="10" d="M0.25,176.496
				C0.25,79.158,79.157,0.25,176.497,0.25"/>
			<path fill="none" stroke="#DB6357" stroke-width="0.5" stroke-miterlimit="10" d="M176.497,0.25
				c60.119,0,108.857,48.736,108.857,108.857"/>
		</g>
	</g>
</g>
</svg>
