<?xml version="1.0" encoding="utf-8"?>
<!-- Generator: Adobe Illustrator 15.1.0, SVG Export Plug-In . SVG Version: 6.00 Build 0)  -->
<!DOCTYPE svg PUBLIC "-//W3C//DTD SVG 1.1//EN" "http://www.w3.org/Graphics/SVG/1.1/DTD/svg11.dtd">
<svg version="1.1" xmlns="http://www.w3.org/2000/svg" xmlns:xlink="http://www.w3.org/1999/xlink" x="0px" y="0px"
	 width="285.414px" height="176.524px" viewBox="0 0 285.414 176.524" enable-background="new 0 0 285.414 176.524"
	 xml:space="preserve">
<g id="mark">
	<g>
		<g>
			<rect x="189.746" y="0.215" fill="#333333" width="33.603" height="176.198"/>
			<rect x="237.272" y="0.215" fill="#333333" width="33.603" height="176.198"/>
		</g>
		<path fill="#333333" d="M88.25,41.06l51.445,42.408l-19.948,61.398H56.637L36.739,83.485L88.25,41.06 M88.257,0.202L0.124,72.792
			l33.589,103.606h108.943l33.662-103.606L88.257,0.202L88.257,0.202z"/>
	</g>
</g>
<g id="ratios" display="none">
	<g display="inline">
		
			<rect x="0.162" y="0.162" fill="none" stroke="#FF0000" stroke-width="0.3233" stroke-miterlimit="10" width="176.188" height="176.201"/>
		
			<rect x="176.35" y="0.162" fill="none" stroke="#FF0000" stroke-width="0.3233" stroke-miterlimit="10" width="108.9" height="176.201"/>
	</g>
	
		<text transform="matrix(1 0 0 1 194.4946 28.334)" display="inline" fill="#D44537" font-family="'MinionPro-Capt'" font-size="12">1/2 ϕ</text>
	<text transform="matrix(1 0 0 1 76.4946 28.334)" display="inline" fill="#D44537" font-family="'MinionPro-Capt'" font-size="12">1/2 ϕ</text>
	
		<text transform="matrix(1 0 0 1 242.4946 28.334)" display="inline" fill="#D44537" font-family="'MinionPro-Capt'" font-size="12">1/2 ϕ</text>
</g>
</svg>
