<?xml version="1.0" encoding="utf-8"?>
<!-- Generator: Adobe Illustrator 15.1.0, SVG Export Plug-In . SVG Version: 6.00 Build 0)  -->
<!DOCTYPE svg PUBLIC "-//W3C//DTD SVG 1.1//EN" "http://www.w3.org/Graphics/SVG/1.1/DTD/svg11.dtd">
<svg version="1.1" xmlns="http://www.w3.org/2000/svg" xmlns:xlink="http://www.w3.org/1999/xlink" x="0px" y="0px"
	 width="286.714px" height="356px" viewBox="0 0 286.714 356" enable-background="new 0 0 286.714 356" xml:space="preserve">
<g id="_x31_1">
</g>
<g id="_x35_">
	<g>
		<polygon fill="none" points="73.443,169.692 83.294,199.19 100.679,184.6 100.679,146.977 		"/>
		<polygon fill="none" points="198.725,186.379 186.033,197.727 186.033,217.717 		"/>
		<polygon fill="none" points="130.156,122.391 130.156,159.862 156.556,137.704 156.556,100.374 		"/>
		<g>
			<polygon fill="#707070" points="100.679,184.6 100.679,274.051 100.679,356 130.156,356 130.156,247.692 130.156,159.862 
				130.156,122.391 100.679,146.977 			"/>
			<polygon fill="#707070" points="100.679,0 100.679,63.091 130.156,39.042 130.156,0 			"/>
		</g>
		<g>
			<rect x="156.556" y="315.635" fill="#707070" width="29.478" height="40.365"/>
			<polygon fill="#707070" points="156.556,137.704 156.556,224.086 156.556,290.508 186.033,217.717 186.033,197.727 
				186.033,112.965 186.033,75.789 156.556,100.374 			"/>
			<polygon fill="#707070" points="156.556,0 156.556,39.04 186.033,63.09 186.033,0 			"/>
		</g>
		<path fill="none" stroke="#FFFFFF" stroke-width="1.5117" stroke-miterlimit="10" d="M143.132,34.269"/>
		<g>
			<path fill="#333333" d="M284.729,143.61l-65.633-53.546c-1.61-1.313-4.231-1.296-5.823,0.041l-15.123,12.693l0,0l-3.902,3.273
				l0,0l-8.215,6.895v84.762l4.399-3.934v0.006l5.476-4.902c1.55-1.385,2.179-0.941,1.398,0.984l-9.854,24.334
				c-0.78,1.926-2.057,5.078-2.837,7.006l-26.641,65.783c-0.78,1.928-2.057,5.08-2.837,7.006l-7.339,18.121
				c-0.78,1.928,0.282,3.504,2.36,3.504h2.617c2.079,0,5.48,0,7.559,0h21.92c2.078,0,5.479,0,7.558,0h38.948
				c2.079,0,4.305-1.617,4.947-3.594l52.782-162.447C287.133,147.618,286.341,144.924,284.729,143.61z"/>
			<polygon fill="#333333" points="156.556,137.704 130.156,159.862 130.156,247.692 156.556,224.086 			"/>
			<path fill="#333333" d="M153.653,102.795c1.597-1.332,4.209-3.51,5.805-4.842l23.673-19.744c1.597-1.332,4.209-3.51,5.805-4.842
				l1.893-1.578c1.597-1.332,1.585-3.496-0.025-4.81l-1.841-1.502c-1.61-1.313-4.246-3.464-5.856-4.777L159.484,41.43
				c-1.611-1.314-4.246-3.464-5.856-4.778l-7.343-5.99c-1.611-1.314-4.246-1.314-5.856,0l-7.345,5.991
				c-1.61,1.314-4.245,3.464-5.855,4.778l-23.622,19.271c-1.61,1.313-4.245,3.464-5.856,4.777L1.983,143.61
				c-1.61,1.314-2.402,4.006-1.76,5.982l52.783,162.449c0.642,1.977,2.435,2.459,3.984,1.074l31.13-27.836l0.001,0.037l4.854-4.389
				c0,0.002,0,0.006,0,0.01l7.702-6.887V184.6l-8.933,7.496c0,0.002,0,0.002,0,0.004l-4.154,3.479v0.006l-1.402,1.176
				c-1.593,1.338-3.435,0.816-4.093-1.154l-7.456-22.33c-0.658-1.971,0.109-4.674,1.705-6.006l21.431-17.873
				c1.597-1.332,4.208-3.51,5.805-4.842l23.673-19.742c1.597-1.332,4.209-3.51,5.805-4.842L153.653,102.795z"/>
		</g>
	</g>
</g>
</svg>
