<?xml version="1.0" encoding="utf-8"?>
<!-- Generator: Adobe Illustrator 15.1.0, SVG Export Plug-In . SVG Version: 6.00 Build 0)  -->
<!DOCTYPE svg PUBLIC "-//W3C//DTD SVG 1.1//EN" "http://www.w3.org/Graphics/SVG/1.1/DTD/svg11.dtd">
<svg version="1.1" xmlns="http://www.w3.org/2000/svg" xmlns:xlink="http://www.w3.org/1999/xlink" x="0px" y="0px"
	 width="301.255px" height="161.07px" viewBox="0 0 301.255 161.07" enable-background="new 0 0 301.255 161.07"
	 xml:space="preserve">
<g id="_x31_1">
</g>
<g id="_x35_">
	<g>
		<rect x="201.984" y="0.193" fill="#333333" width="37.333" height="160.875"/>
		<rect x="263.922" y="0.193" fill="#333333" width="37.333" height="160.875"/>
		<path fill="#333333" d="M169.215,61.381l-31.757-23.072l-20.969-15.234L84.732,0L52.976,23.074L31.769,38.48L0.012,61.555
			l0.021,0.064L0,61.643L12.108,98.91l8.067,24.826l12.129,37.332h0.041l0.001,0.002H71.6H97.57h39.255v-0.002h0.023l12.129-37.332
			l8.127-25.008l12.049-37.086l-0.019-0.014L169.215,61.381z M109.701,123.736H59.47L43.898,75.814l40.833-29.668l40.597,29.494
			L109.701,123.736z"/>
	</g>
</g>
</svg>
